<?xml version="1.0" encoding="UTF-8"?>
<!DOCTYPE svg PUBLIC "-//W3C//DTD SVG 1.1//EN" "http://www.w3.org/Graphics/SVG/1.1/DTD/svg11.dtd">
<!-- Creator: CorelDRAW X5 -->
<svg xmlns="http://www.w3.org/2000/svg" xml:space="preserve" width="134.652mm" height="130mm" style="shape-rendering:geometricPrecision; text-rendering:geometricPrecision; image-rendering:optimizeQuality; fill-rule:evenodd; clip-rule:evenodd"
viewBox="0 0 13465 13000"
 xmlns:xlink="http://www.w3.org/1999/xlink">
 <defs>
  <style type="text/css">
   <![CDATA[
    .fil0 {fill:#162B3E}
    .fil2 {fill:#74C3EF}
    .fil1 {fill:#FDFDFE}
   ]]>
  </style>
 </defs>
 <g id="Layer_x0020_1">
  <metadata id="CorelCorpID_0Corel-Layer"/>
  <path class="fil0" d="M6500 844c0,-134 49,-464 -84,-464 -461,0 -1019,615 -1319,918 -209,211 -408,316 -679,461l-712 428c-593,396 -1589,1183 -2070,1729 -855,971 -951,1141 -1636,2163 108,161 193,343 293,509 540,895 493,609 345,1057 -343,1037 4,827 333,1262 146,193 287,326 521,450 363,191 339,389 829,606 123,55 271,73 380,126 -22,-258 -189,-370 -211,-633 425,113 1008,601 1309,802 -113,235 -90,533 -14,777 21,67 63,155 66,177 28,189 -186,29 45,385 229,351 -105,480 367,730 820,-434 567,-231 1401,-329 300,-35 240,-21 456,-135 6,291 102,713 127,1013 197,-4 1135,-294 1410,-363 542,-137 520,-26 1360,253 1260,419 981,281 1339,-424 126,-247 208,-492 323,-732 294,0 1562,-148 1562,-675 0,-240 -60,-859 -131,-1009 -73,-155 -338,-253 -481,-363 -122,-95 -91,-15 -106,-190 134,90 341,257 507,295 0,-216 -64,-513 -81,-721 -86,-1040 -152,-318 71,-1357 227,-1059 23,-911 433,-1171 655,-415 765,-876 1013,-1393 -409,0 -796,-140 -1140,-169 0,-1328 -111,-698 153,-1747 41,-162 97,-407 101,-575 -212,0 -189,38 -380,42 0,-432 -104,-918 -169,-1309 -68,-415 -160,-866 -254,-1266 -1558,130 -2372,61 -4069,489 -375,95 -910,212 -1207,355z"/>
  <path class="fil1" d="M8285 1799c151,-226 367,-382 491,-700 -582,87 -1560,351 -2126,529 -432,136 -809,185 -864,447 -51,243 36,375 163,502 193,194 288,186 394,305 -252,-24 -507,-97 -720,-189 -481,-208 -297,-343 -431,-500 -225,141 -496,287 -607,467 129,311 402,423 763,527 -281,32 -916,42 -1204,-26 -194,-46 -174,-58 -261,-191 -190,125 -301,265 -243,571 180,89 412,111 646,157 -352,93 -762,279 -1109,81 -239,235 -469,574 -673,921 -95,161 -471,772 -407,982 3,9 8,20 12,29l56 87c-137,47 -116,40 -203,127 36,113 36,73 129,145 -622,437 -1212,1355 -1306,2174 501,-74 770,-579 996,-743 -34,182 -99,339 -154,503 -122,362 -87,211 -266,271 -157,329 53,507 248,670 113,94 218,149 417,138 486,-27 326,-706 1412,-1252l78 -45c5,-3 17,-10 24,-17 -89,-61 -88,-47 -165,-80l-185 -97c560,28 1170,283 1580,514 228,128 431,237 626,387 120,93 203,144 285,223l252 263c-65,-231 -245,-471 -350,-641 662,479 536,755 706,1123l1042 -272c-23,-379 -339,-896 -516,-1144 -283,-396 -738,-788 -814,-915 406,-502 435,-594 661,-1263 166,-489 313,-1049 386,-1577 6,10 14,13 16,30 2,17 12,23 15,30 264,663 30,1833 -186,2463 -186,543 578,470 508,2333l406 -86c114,97 46,58 123,184 108,-453 120,-1027 168,-1520l829 826 -49 -761c164,117 284,233 440,368 88,76 137,121 213,209 120,138 77,159 271,160 62,-851 -424,-1690 -756,-2272 626,135 1514,1191 1949,1582 61,-666 -110,-816 -214,-1312 701,-169 1750,-366 2057,-1206 -471,-29 -893,-158 -1296,-312l-959 -434c-8,-5 -19,-11 -27,-17l-98 -91c722,-29 743,168 1102,-369 171,-256 396,-676 485,-1019 -646,99 -2396,588 -2938,259 239,-91 404,-170 538,-335 -129,-56 -375,-89 -523,-132 -84,-25 -178,-58 -252,-86l-197 -105c-5,-4 -16,-13 -24,-20 627,-319 1092,-777 1609,-1149l-198 778 208 -132 -187 853c365,-270 798,-1624 470,-2234 -178,52 -1393,749 -2268,1028z"/>
  <path class="fil2" d="M9188 11787c303,53 1124,-190 1316,-379 34,-366 -213,-2485 -346,-2695 -226,-52 -725,127 -958,192 -479,133 -354,298 -293,803 56,465 153,1752 280,2080z"/>
  <path class="fil0" d="M2894 4783c-124,206 -257,362 -389,634 -310,638 -47,564 50,703 -85,139 -160,353 -183,554 241,-336 285,-572 898,-480 -64,185 -99,134 -192,308 389,-139 593,-80 987,-175 -9,-6 -24,-23 -29,-14l-546 -184c92,-64 239,-77 344,-101 130,-31 212,-67 353,-89 114,283 234,326 553,466 183,80 528,235 725,244 -93,-47 -423,-385 -495,-474 -508,-615 -306,-652 -186,-1096 37,-136 50,-322 82,-429 69,-232 405,-387 510,-559 -626,149 -1364,742 -1789,1182 -192,200 -510,707 -865,573 -303,-114 105,-877 173,-1065z"/>
  <path class="fil2" d="M11579 10806c-119,83 -306,127 -477,140 -83,-230 34,-223 -172,-348 -84,-51 -234,-124 -322,-160 15,304 51,693 138,930 282,39 1012,-180 1244,-335 39,-258 -11,-518 -44,-774 -49,-382 -361,-486 -886,-802 -230,-138 -209,-316 -216,-633l384 -99c98,152 -4,278 521,492 -22,-274 -47,-693 -150,-888 -215,-54 -748,114 -970,191 -211,73 -227,156 -211,386 56,786 72,723 710,1115 421,259 414,175 452,785z"/>
  <path class="fil2" d="M8261 11345l-555 -2005 -405 74 838 2705c181,1 271,-42 417,-96l191 -2983c-525,90 -406,62 -433,964 -12,398 7,965 -53,1341z"/>
  <path class="fil2" d="M6116 9739l326 2822c159,32 983,-211 1139,-284l-35 -340 -728 168 -108 -876c219,-97 461,-107 607,-212l-35 -319 -608 140 -109 -838c241,-49 517,-99 707,-208l-26 -328c-223,-2 -868,211 -1132,275z"/>
  <path class="fil1" d="M407 6078l507 890 135 -143c118,-168 51,-170 -137,-477 -206,-336 -79,-364 136,-657 1009,-1374 959,-1105 2015,-2291 362,-407 684,-698 1066,-1069 -648,311 -1774,1311 -2297,1865 -374,396 -1181,1447 -1426,1883z"/>
  <path class="fil2" d="M4755 9856c-46,-425 75,-834 37,-1019l-22 -63c-270,179 -341,555 -393,968 -61,493 -81,827 349,967l-17 -716c218,99 332,294 574,366 83,-427 161,-238 245,-1115l137 0c60,-311 55,-537 -444,-676 -194,335 -446,864 -466,1288z"/>
  <path class="fil1" d="M5298 10956l60 76c26,246 -853,127 -1216,355 93,85 33,39 274,28 -190,160 -250,271 -179,603 314,-130 461,-221 882,-253 382,-28 781,55 978,-241 -11,-6 -29,-23 -35,-13l-170 -58c-8,-3 -23,-6 -33,-11l207 -98 -120 -1132 -646 744z"/>
  <path class="fil0" d="M9296 9259l226 2081c174,47 394,-63 566,-104l-243 -2106 -550 129z"/>
  <path class="fil2" d="M3316 5883c359,121 623,-51 918,-141 155,313 268,447 680,592 -137,-257 -358,-241 -433,-732 -36,-238 178,-571 139,-937 -329,191 -1244,856 -1304,1217z"/>
  <path class="fil0" d="M7744 7202c125,-521 374,-1079 503,-1660 84,-379 178,-587 -33,-839 -80,-95 -455,-397 -635,-425 497,976 81,1890 166,2923z"/>
  <path class="fil1" d="M10966 677l294 31 324 1992 298 -35c-18,-383 -232,-2039 -400,-2298l-596 17 81 293z"/>
  <path class="fil0" d="M8545 3401c-17,-11 -977,-903 -647,-1325 56,-71 33,-34 84,-88 66,-70 29,-17 88,-98 -1808,169 -82,1417 475,1511z"/>
  <path class="fil0" d="M9916 5778c-32,-312 -227,-851 -380,-1047 -206,-264 -592,-400 -1041,-378 271,504 704,626 1084,1052 114,128 211,249 337,373z"/>
  <path class="fil1" d="M4889 2090c342,-213 569,-588 919,-761 -28,527 130,319 518,191 7,-285 -73,-86 -100,-742 -405,64 -1228,919 -1337,1313z"/>
  <path class="fil1" d="M9686 12257c-180,-31 -392,-120 -534,-133 -151,-14 -390,81 -555,115l1238 385 388 -803c-415,67 -427,68 -537,436z"/>
  <path class="fil0" d="M5660 4021c87,27 201,39 278,83 101,459 -299,776 -409,1109 309,-226 858,-998 983,-1480 -317,58 -598,175 -852,288z"/>
  <path class="fil1" d="M2392 9091c249,134 537,409 900,504l-556 -1014c-121,103 -299,320 -344,510z"/>
  <path class="fil1" d="M11481 8078c105,-48 59,-5 110,-118 2,-4 39,-157 42,-174 60,-287 178,-809 184,-1064 -340,95 -366,77 -390,494l-14 637c4,204 29,182 67,224z"/>
  <path class="fil1" d="M4034 9987c50,-156 68,-156 63,-321 -169,-129 -621,-494 -762,-542 120,422 289,691 699,863z"/>
  <path class="fil1" d="M5023 10970c173,-36 178,-146 328,-286 -87,-120 -153,-147 -263,-239 -117,-98 -135,-158 -271,-257 -33,285 61,580 206,782z"/>
  <path class="fil1" d="M5355 10622c90,-19 93,-76 171,-149 -159,-219 -170,-81 -239,-131 -17,148 -7,174 69,280z"/>
  <path class="fil1" d="M5545 10436c90,-19 93,-76 171,-149 -159,-219 -170,-81 -239,-131 -17,148 -7,174 69,280z"/>
  <path class="fil1" d="M4018 11065c173,-36 178,-146 328,-286 -87,-120 -153,-147 -263,-239 -117,-98 -135,-158 -271,-257 -33,285 61,580 206,782z"/>
  <path class="fil1" d="M4753 11131c119,-17 123,-70 227,-138 -211,-203 -226,-75 -318,-121 -23,137 -10,161 91,258z"/>
  <path class="fil1" d="M4445 11193c119,-17 123,-70 227,-138 -211,-203 -226,-75 -318,-121 -23,137 -10,161 91,258z"/>
  <path class="fil1" d="M4121 11193c119,-17 123,-70 227,-138 -211,-203 -226,-75 -318,-121 -23,137 -10,161 91,258z"/>
  <path class="fil1" d="M1906 9612c223,120 481,366 806,451l-498 -908c-108,93 -268,287 -308,457z"/>
  <path class="fil1" d="M3202 8164c-90,19 -93,76 -171,149 159,219 170,81 239,131 17,-148 7,-174 -69,-280z"/>
  <path class="fil1" d="M3012 8349c-90,19 -93,76 -171,149 159,219 170,81 239,131 17,-148 7,-174 -69,-280z"/>
 </g>
</svg>
